<svg version="1.1" xmlns="http://www.w3.org/2000/svg" viewBox="0 0 451.3609632138225 321.5540297047702" width="902.721926427645" height="643.1080594095404">
  <!-- svg-source:excalidraw -->
  
  <defs>
    <style class="style-fonts">
      @font-face {
        font-family: "Virgil";
        src: url("https://excalidraw.com/Virgil.woff2");
      }
      @font-face {
        font-family: "Cascadia";
        src: url("https://excalidraw.com/Cascadia.woff2");
      }
    </style>
  </defs>
  <rect x="0" y="0" width="451.3609632138225" height="321.5540297047702" fill="#ffffff"></rect><g stroke-linecap="round" transform="translate(31.716478767782633 112.0419868797733) rotate(0 24.9356689453125 23.43310546875)"><path d="M24.49 0.8 C29.84 0.28, 36.66 1.45, 40.71 4.42 C44.77 7.4, 47.77 13.86, 48.8 18.64 C49.82 23.42, 49.35 28.76, 46.86 33.08 C44.38 37.4, 38.67 42.38, 33.89 44.57 C29.1 46.77, 23.06 47.59, 18.16 46.24 C13.26 44.89, 7.62 40.73, 4.49 36.49 C1.35 32.25, -1.21 25.84, -0.65 20.8 C-0.09 15.76, 2.9 9.73, 7.85 6.25 C12.8 2.78, 24.89 0.55, 29.06 -0.07 C33.23 -0.69, 32.87 2.08, 32.88 2.53 M26.01 0.03 C30.98 -0.33, 37.79 1.68, 41.66 4.81 C45.52 7.94, 48.39 13.57, 49.17 18.82 C49.96 24.06, 48.71 31.7, 46.35 36.29 C43.99 40.87, 40.18 44.59, 35 46.34 C29.82 48.09, 20.57 48.8, 15.25 46.79 C9.94 44.79, 5.55 38.65, 3.11 34.32 C0.67 29.99, -0.09 25.36, 0.61 20.83 C1.31 16.3, 3.5 10.8, 7.32 7.15 C11.14 3.49, 20.86 -0.17, 23.53 -1.11 C26.21 -2.06, 23.31 0.68, 23.38 1.46" stroke="#000000" stroke-width="1" fill="none"></path></g><g stroke-linecap="round" transform="translate(33.01265186348576 191.7806343407108) rotate(0 24.9356689453125 23.43310546875)"><path d="M26.25 0.11 C31.23 0.17, 37.55 3, 41.32 6.4 C45.09 9.81, 48.29 15.58, 48.88 20.55 C49.47 25.52, 47.73 32.1, 44.87 36.23 C42.01 40.36, 36.69 43.83, 31.74 45.34 C26.78 46.84, 19.84 47.17, 15.12 45.27 C10.4 43.38, 5.66 38.6, 3.42 33.97 C1.18 29.33, 0.67 22.39, 1.68 17.48 C2.69 12.58, 5.09 7.27, 9.48 4.53 C13.88 1.79, 24.69 1.51, 28.03 1.03 C31.36 0.54, 29.63 1.48, 29.49 1.63 M19.65 0.5 C24.18 -1.34, 30.15 -1.29, 35.01 0.93 C39.86 3.16, 46.67 8.96, 48.79 13.82 C50.9 18.69, 49.04 25.39, 47.69 30.13 C46.34 34.87, 45.01 39.46, 40.67 42.25 C36.32 45.04, 27.38 47.29, 21.6 46.88 C15.83 46.47, 9.82 43.42, 6.03 39.79 C2.24 36.17, -1.12 30.29, -1.14 25.12 C-1.17 19.95, 2.6 12.86, 5.88 8.77 C9.16 4.69, 16.37 1.74, 18.55 0.61 C20.72 -0.51, 18.84 1.52, 18.93 2.01" stroke="#000000" stroke-width="1" fill="none"></path></g><g stroke-linecap="round" transform="translate(206.06809350792207 116.28564473915108) rotate(0 24.9356689453125 23.43310546875)"><path d="M21.92 1.14 C26.97 0.04, 34.14 0.32, 38.74 2.93 C43.34 5.54, 47.96 11.91, 49.55 16.79 C51.14 21.68, 50.51 27.79, 48.28 32.22 C46.05 36.65, 40.85 41.15, 36.16 43.36 C31.48 45.57, 25.18 46.46, 20.17 45.46 C15.16 44.46, 9.55 41.13, 6.09 37.36 C2.64 33.59, -0.52 27.96, -0.56 22.84 C-0.6 17.72, 1.49 10.47, 5.86 6.64 C10.23 2.81, 22.12 0.88, 25.64 -0.15 C29.16 -1.17, 27.02 0.13, 26.98 0.5 M25.49 1.01 C30.79 1.09, 38.45 3.88, 42.5 7.3 C46.55 10.72, 49.32 16.5, 49.79 21.52 C50.25 26.53, 48.19 33.11, 45.3 37.4 C42.4 41.69, 37.31 45.77, 32.41 47.24 C27.51 48.7, 20.75 48.44, 15.91 46.18 C11.06 43.93, 5.8 38.52, 3.35 33.71 C0.9 28.9, 0.01 22.35, 1.18 17.3 C2.36 12.25, 6.27 6.15, 10.42 3.41 C14.56 0.67, 23.15 1.53, 26.05 0.86 C28.95 0.2, 27.73 -0.77, 27.83 -0.61" stroke="#000000" stroke-width="1" fill="none"></path></g><g stroke-linecap="round" transform="translate(207.3642666036252 196.02429220008858) rotate(0 24.9356689453125 23.43310546875)"><path d="M26.84 0.43 C31.75 0.41, 37.09 3.56, 40.95 6.92 C44.82 10.28, 49.24 15.79, 50.05 20.58 C50.87 25.36, 48.91 31.34, 45.85 35.64 C42.79 39.94, 36.89 44.64, 31.69 46.37 C26.49 48.11, 19.51 48.16, 14.65 46.06 C9.79 43.96, 4.81 38.48, 2.53 33.77 C0.25 29.05, -0.04 22.43, 0.99 17.78 C2.02 13.13, 4.18 8.9, 8.7 5.85 C13.22 2.81, 24.51 0.21, 28.13 -0.48 C31.74 -1.16, 30.46 1.21, 30.38 1.74 M18.39 1.46 C23.21 -0.08, 30.41 0.06, 35.3 1.85 C40.19 3.64, 45.25 7.68, 47.75 12.19 C50.24 16.7, 51.33 23.79, 50.29 28.92 C49.24 34.05, 45.65 39.85, 41.46 42.97 C37.26 46.08, 30.72 47.88, 25.14 47.59 C19.55 47.3, 12.21 44.67, 7.95 41.21 C3.7 37.74, 0.46 31.92, -0.41 26.79 C-1.28 21.66, -0.38 14.46, 2.73 10.41 C5.84 6.35, 15.95 3.88, 18.24 2.45 C20.53 1.03, 16.56 1.89, 16.45 1.85" stroke="#000000" stroke-width="1" fill="none"></path></g><g stroke-linecap="round" transform="translate(368.91817149939175 150.2447673846245) rotate(0 24.9356689453125 23.43310546875)"><path d="M19.65 -0.43 C24.59 -1.64, 32.29 -0.44, 36.9 2.2 C41.51 4.83, 45.36 10.53, 47.29 15.38 C49.22 20.23, 50.21 26.7, 48.47 31.3 C46.73 35.91, 41.33 40.47, 36.86 43.01 C32.4 45.55, 26.91 47.17, 21.66 46.55 C16.41 45.93, 8.97 43.19, 5.37 39.29 C1.77 35.4, 0.12 28.29, 0.06 23.17 C-0.01 18.06, 1.3 12.57, 4.98 8.61 C8.66 4.66, 18.53 0.78, 22.14 -0.55 C25.74 -1.88, 26.47 0.07, 26.62 0.64 M16.57 1.14 C21.5 -0.41, 31.24 -1.02, 36.12 1.11 C40.99 3.24, 43.78 9.36, 45.82 13.91 C47.86 18.47, 49.33 23.69, 48.35 28.42 C47.37 33.15, 44.3 39.14, 39.94 42.28 C35.58 45.41, 27.71 47.71, 22.21 47.24 C16.72 46.78, 10.67 42.95, 6.98 39.49 C3.29 36.03, 0.43 31.08, 0.07 26.47 C-0.29 21.86, 2.03 16.04, 4.8 11.83 C7.56 7.62, 14.59 2.75, 16.67 1.21 C18.75 -0.34, 17.16 2.44, 17.29 2.55" stroke="#000000" stroke-width="1" fill="none"></path></g><g stroke-linecap="round"><g transform="translate(85.52626002338661 143.45298475987457) rotate(0 59.28115912748572 34.13292530974584)"><path d="M-0.02 0.74 C20.15 11.85, 100.16 56.03, 120.05 67.22 M-1.48 0.08 C18.64 11.26, 99.27 56.71, 119.24 68.19" stroke="#000000" stroke-width="1" fill="none"></path></g><g transform="translate(85.52626002338661 143.45298475987457) rotate(0 59.28115912748572 34.13292530974584)"><path d="M90.89 63.63 C94.34 63.53, 101.91 65.27, 117.85 67.37 M89.88 64.09 C97.1 64.66, 102.54 65.33, 118.43 68.39" stroke="#000000" stroke-width="1" fill="none"></path></g><g transform="translate(85.52626002338661 143.45298475987457) rotate(0 59.28115912748572 34.13292530974584)"><path d="M101.03 45.79 C102.34 49.59, 107.69 55.24, 117.85 67.37 M100.01 46.25 C104.71 50.91, 107.77 55.78, 118.43 68.39" stroke="#000000" stroke-width="1" fill="none"></path></g></g><mask></mask><g stroke-linecap="round"><g transform="translate(82.77739073476715 149.2887066012115) rotate(0 56.932000288705865 -1.2824920025157667)"><path d="M-0.06 1.02 C18.67 0.74, 93.99 -1.3, 113.21 -1.82 M-1.55 0.5 C17.47 -0.1, 95.98 -2.78, 115.41 -3.58" stroke="#000000" stroke-width="1" fill="none"></path></g><g transform="translate(82.77739073476715 149.2887066012115) rotate(0 56.932000288705865 -1.2824920025157667)"><path d="M89.31 6.1 C99.1 5.3, 108.87 -2.37, 115.51 -4.17 M86.74 7.27 C93.91 5.03, 99.49 3.41, 115.19 -3.97" stroke="#000000" stroke-width="1" fill="none"></path></g><g transform="translate(82.77739073476715 149.2887066012115) rotate(0 56.932000288705865 -1.2824920025157667)"><path d="M88.55 -14.4 C98.59 -7.61, 108.64 -7.68, 115.51 -4.17 M85.98 -13.24 C93.47 -11.19, 99.22 -8.53, 115.19 -3.97" stroke="#000000" stroke-width="1" fill="none"></path></g></g><mask></mask><g stroke-linecap="round"><g transform="translate(87.40345035866102 216.77116382465798) rotate(0 57.982966537861415 -0.32569544455625987)"><path d="M0.48 0.46 C19.87 0.1, 97.4 -0.94, 116.69 -1.11 M-0.73 -0.34 C18.54 -0.09, 96.73 -0.32, 116.11 -0.19" stroke="#000000" stroke-width="1" fill="none"></path></g><g transform="translate(87.40345035866102 216.77116382465798) rotate(0 57.982966537861415 -0.32569544455625987)"><path d="M88.67 11.2 C95.13 6.95, 105.32 3.36, 114.67 -1.89 M87.38 10.41 C95.66 7.63, 102.44 4.99, 116.68 -1" stroke="#000000" stroke-width="1" fill="none"></path></g><g transform="translate(87.40345035866102 216.77116382465798) rotate(0 57.982966537861415 -0.32569544455625987)"><path d="M88.7 -9.32 C95.34 -6.83, 105.51 -3.69, 114.67 -1.89 M87.41 -10.11 C95.68 -7.45, 102.45 -4.66, 116.68 -1" stroke="#000000" stroke-width="1" fill="none"></path></g></g><mask></mask><g stroke-linecap="round"><g transform="translate(86.43482386519321 204.63390214119138) rotate(0 56.82971201364495 -25.498513747845493)"><path d="M0.27 -0.65 C19.4 -9.25, 95.77 -44.13, 114.7 -52.62 M-1.05 1.62 C17.95 -6.68, 94.23 -41.92, 113.81 -51.09" stroke="#000000" stroke-width="1" fill="none"></path></g><g transform="translate(86.43482386519321 204.63390214119138) rotate(0 56.82971201364495 -25.498513747845493)"><path d="M91.47 -29.75 C98.92 -37.34, 106.82 -41.51, 113.3 -50.09 M92.49 -30.56 C98.43 -36.02, 104.13 -41.45, 113.58 -50.85" stroke="#000000" stroke-width="1" fill="none"></path></g><g transform="translate(86.43482386519321 204.63390214119138) rotate(0 56.82971201364495 -25.498513747845493)"><path d="M82.83 -48.37 C92.64 -50.54, 103.06 -49.27, 113.3 -50.09 M83.84 -49.17 C92.15 -49.56, 100.19 -49.97, 113.58 -50.85" stroke="#000000" stroke-width="1" fill="none"></path></g></g><mask></mask><g stroke-linecap="round"><g transform="translate(262.17027400284985 141.76584738914815) rotate(0 48.129295851467475 14.004755221927127)"><path d="M-0.06 0.41 C16.3 4.73, 81.48 22.65, 97.82 26.92 M-1.56 -0.43 C14.73 4.02, 80.6 23.88, 97.11 28.44" stroke="#000000" stroke-width="1" fill="none"></path></g><g transform="translate(262.17027400284985 141.76584738914815) rotate(0 48.129295851467475 14.004755221927127)"><path d="M67.85 31.19 C75.09 30.91, 81.65 29.74, 96.5 28.94 M67.37 29.58 C75.25 29.53, 83.22 28.82, 97.92 28.48" stroke="#000000" stroke-width="1" fill="none"></path></g><g transform="translate(262.17027400284985 141.76584738914815) rotate(0 48.129295851467475 14.004755221927127)"><path d="M73.57 11.49 C79.44 16.47, 84.47 20.57, 96.5 28.94 M73.09 9.87 C79.41 15.3, 85.8 20.02, 97.92 28.48" stroke="#000000" stroke-width="1" fill="none"></path></g></g><mask></mask><g stroke-linecap="round"><g transform="translate(266.34613043352397 212.83351227530105) rotate(0 46.783283914769186 -13.84291587915601)"><path d="M-1.06 1.16 C14.47 -3.49, 76.64 -22.4, 92.34 -27.1 M0.58 0.72 C16.57 -4.34, 79.33 -23.89, 94.63 -28.84" stroke="#000000" stroke-width="1" fill="none"></path></g><g transform="translate(266.34613043352397 212.83351227530105) rotate(0 46.783283914769186 -13.84291587915601)"><path d="M72.78 -11.9 C77.39 -14.56, 82.91 -17.18, 93.55 -29.15 M71.39 -9.84 C78.03 -17, 87.78 -22.8, 93.76 -28.32" stroke="#000000" stroke-width="1" fill="none"></path></g><g transform="translate(266.34613043352397 212.83351227530105) rotate(0 46.783283914769186 -13.84291587915601)"><path d="M66.58 -31.47 C72.74 -29.59, 79.68 -27.73, 93.55 -29.15 M65.2 -29.4 C73.87 -30.01, 85.7 -29.25, 93.76 -28.32" stroke="#000000" stroke-width="1" fill="none"></path></g></g><mask></mask><g transform="translate(10 63.52138315540003) rotate(0 46.79997253417969 10)"><text x="0" y="0" font-family="Virgil, Segoe UI Emoji" font-size="16px" fill="#000000" text-anchor="start" style="white-space: pre;" direction="ltr" dominant-baseline="text-before-edge">Input Layer</text></g><g transform="translate(176.63273477528776 10) rotate(0 49.07197570800781 10)"><text x="0" y="0" font-family="Virgil, Segoe UI Emoji" font-size="16px" fill="#000000" text-anchor="start" style="white-space: pre;" direction="ltr" dominant-baseline="text-before-edge">Hidden Layer</text></g><g transform="translate(334.20901619233814 88.06969435008426) rotate(0 53.57597351074219 10)"><text x="0" y="0" font-family="Virgil, Segoe UI Emoji" font-size="16px" fill="#000000" text-anchor="start" style="white-space: pre;" direction="ltr" dominant-baseline="text-before-edge">Output Layer</text></g><g stroke-linecap="round" transform="translate(202.90854783190844 48.50917856865712) rotate(0 24.9356689453125 23.43310546875)"><path d="M36.37 1.43 C41.36 3.3, 46.52 9.79, 48.63 14.56 C50.74 19.33, 50.49 25.36, 49.02 30.05 C47.54 34.73, 44.27 39.89, 39.79 42.67 C35.3 45.45, 27.5 47.37, 22.13 46.73 C16.76 46.1, 11.1 42.36, 7.58 38.85 C4.06 35.33, 1.46 30.43, 0.98 25.65 C0.51 20.88, 1.58 14.21, 4.72 10.21 C7.86 6.21, 13.95 2.74, 19.82 1.66 C25.69 0.57, 36.19 2.78, 39.95 3.68 C43.71 4.57, 42.88 6.68, 42.4 7.03 M31.06 -0.81 C36.28 -0.23, 42.6 3.32, 45.78 7.7 C48.96 12.09, 50.65 20.3, 50.13 25.49 C49.6 30.67, 46.2 35.11, 42.61 38.81 C39.01 42.52, 33.81 46.76, 28.55 47.73 C23.28 48.7, 15.38 47.28, 11.01 44.64 C6.64 41.99, 4.02 36.92, 2.34 31.85 C0.65 26.77, -0.82 18.97, 0.89 14.17 C2.61 9.37, 7.5 5.34, 12.62 3.05 C17.73 0.75, 28.54 0.78, 31.57 0.41 C34.61 0.04, 31.28 0.28, 30.86 0.83" stroke="#000000" stroke-width="1" fill="none"></path></g><g stroke-linecap="round" transform="translate(209.7459519092764 264.6878187672702) rotate(0 24.9356689453125 23.43310546875)"><path d="M33.67 0.74 C38.51 1.79, 43.58 5.92, 46.15 10.46 C48.72 15, 49.99 22.76, 49.07 27.99 C48.15 33.21, 44.61 38.75, 40.62 41.8 C36.62 44.85, 30.42 46.47, 25.1 46.31 C19.77 46.15, 12.76 43.93, 8.65 40.85 C4.53 37.77, 1.42 32.73, 0.4 27.83 C-0.63 22.93, -0.24 15.82, 2.49 11.46 C5.23 7.11, 11.32 3.36, 16.81 1.7 C22.3 0.05, 31.98 1.25, 35.44 1.54 C38.9 1.83, 37.89 3.06, 37.56 3.46 M28.92 0.99 C34.22 1.55, 40.36 5.37, 44.02 9.06 C47.68 12.75, 50.69 18.47, 50.89 23.15 C51.1 27.84, 48.54 33.06, 45.26 37.15 C41.97 41.24, 36.67 46.39, 31.17 47.7 C25.66 49.02, 16.87 47.37, 12.22 45.02 C7.58 42.68, 5.14 38.42, 3.29 33.62 C1.45 28.82, -0.27 21.14, 1.16 16.23 C2.59 11.32, 7.41 6.67, 11.86 4.16 C16.32 1.64, 25.35 1.74, 27.9 1.12 C30.46 0.5, 27 0.39, 27.17 0.45" stroke="#000000" stroke-width="1" fill="none"></path></g><g stroke-linecap="round"><g transform="translate(268.2310437952734 283.6378418836815) rotate(0 49.698437810712505 -42.2204831679299)"><path d="M-1.2 -0.44 C15.39 -14.08, 83.89 -68.6, 100.59 -82.37 M0.38 -1.72 C16.79 -15.63, 83.87 -70.68, 100.12 -84" stroke="#000000" stroke-width="1" fill="none"></path></g><g transform="translate(268.2310437952734 283.6378418836815) rotate(0 49.698437810712505 -42.2204831679299)"><path d="M84.11 -56.66 C92.46 -69.19, 97.24 -77.37, 100.9 -84.97 M84.89 -58.41 C89.61 -65.62, 93.4 -73.64, 100.74 -84.62" stroke="#000000" stroke-width="1" fill="none"></path></g><g transform="translate(268.2310437952734 283.6378418836815) rotate(0 49.698437810712505 -42.2204831679299)"><path d="M71.09 -72.53 C84.43 -78.75, 94.28 -80.76, 100.9 -84.97 M71.87 -74.27 C80.38 -76.67, 88.11 -79.89, 100.74 -84.62" stroke="#000000" stroke-width="1" fill="none"></path></g></g><mask></mask><g stroke-linecap="round"><g transform="translate(257.94398570055955 81.14861887936999) rotate(0 54.78710819781685 34.98739591785406)"><path d="M0.91 0.1 C18.77 11.56, 89.65 57.9, 107.38 69.26 M-0.07 -0.89 C18.15 10.75, 91.35 59.2, 109.64 70.87" stroke="#000000" stroke-width="1" fill="none"></path></g><g transform="translate(257.94398570055955 81.14861887936999) rotate(0 54.78710819781685 34.98739591785406)"><path d="M80.59 62.66 C90.01 64.44, 97.66 67.79, 108.19 70.57 M79.85 64.8 C91.5 66.49, 101.41 69.41, 109.51 71.24" stroke="#000000" stroke-width="1" fill="none"></path></g><g transform="translate(257.94398570055955 81.14861887936999) rotate(0 54.78710819781685 34.98739591785406)"><path d="M91.79 45.47 C97.7 52.82, 101.77 61.67, 108.19 70.57 M91.05 47.61 C98.6 55.63, 104.37 64.9, 109.51 71.24" stroke="#000000" stroke-width="1" fill="none"></path></g></g><mask></mask><g stroke-linecap="round"><g transform="translate(85.96380717589187 230.446432417409) rotate(0 57.8262885671401 27.481796301799704)"><path d="M-0.59 -0.86 C18.59 8.37, 97.13 46.63, 116.24 55.83 M1.31 1.3 C20.33 10.16, 96.72 45.12, 115.9 54.12" stroke="#000000" stroke-width="1" fill="none"></path></g><g transform="translate(85.96380717589187 230.446432417409) rotate(0 57.8262885671401 27.481796301799704)"><path d="M84.57 53.54 C99.23 51.07, 108.67 53, 115.11 52.67 M85.13 51.58 C95.89 51.55, 105.89 52.83, 116.84 54.95" stroke="#000000" stroke-width="1" fill="none"></path></g><g transform="translate(85.96380717589187 230.446432417409) rotate(0 57.8262885671401 27.481796301799704)"><path d="M93.19 34.92 C104.48 39.82, 110.48 49.17, 115.11 52.67 M93.75 32.96 C101.92 38.91, 109.16 46.17, 116.84 54.95" stroke="#000000" stroke-width="1" fill="none"></path></g></g><mask></mask><g stroke-linecap="round"><g transform="translate(86.68260600105117 125.85596335571262) rotate(0 53.364755551365164 -22.752901836199385)"><path d="M-0.93 -0.93 C17.22 -8.52, 89.42 -37.5, 107.66 -45.11 M0.79 1.2 C18.86 -6.75, 88.74 -38.91, 106.63 -46.7" stroke="#000000" stroke-width="1" fill="none"></path></g><g transform="translate(86.68260600105117 125.85596335571262) rotate(0 53.364755551365164 -22.752901836199385)"><path d="M83.57 -26.04 C91.04 -28.68, 92.83 -34.46, 108.21 -45.98 M84.98 -25.09 C94.02 -32.45, 101.06 -41.99, 107.53 -46.92" stroke="#000000" stroke-width="1" fill="none"></path></g><g transform="translate(86.68260600105117 125.85596335571262) rotate(0 53.364755551365164 -22.752901836199385)"><path d="M75.16 -44.76 C84.39 -43.58, 87.86 -45.61, 108.21 -45.98 M76.57 -43.8 C88.77 -44.17, 98.94 -46.75, 107.53 -46.92" stroke="#000000" stroke-width="1" fill="none"></path></g></g><mask></mask><g stroke-linecap="round"><g transform="translate(88.91782221813924 207.6061240705989) rotate(0 54.11650289114348 -56.69689580429744)"><path d="M-0.38 -0.51 C17.65 -19.41, 90.59 -94.51, 108.61 -113.29 M1.62 1.83 C19.55 -17.45, 90.64 -95.7, 108.21 -115.22" stroke="#000000" stroke-width="1" fill="none"></path></g><g transform="translate(88.91782221813924 207.6061240705989) rotate(0 54.11650289114348 -56.69689580429744)"><path d="M96.04 -85.7 C101.27 -96.45, 105.2 -106.91, 108.91 -115.81 M95.91 -86.71 C101.61 -95.93, 105.28 -104.63, 107.99 -114.37" stroke="#000000" stroke-width="1" fill="none"></path></g><g transform="translate(88.91782221813924 207.6061240705989) rotate(0 54.11650289114348 -56.69689580429744)"><path d="M80.83 -99.47 C91.18 -105.55, 100.22 -111.39, 108.91 -115.81 M80.7 -100.48 C91.17 -105.15, 99.72 -109.43, 107.99 -114.37" stroke="#000000" stroke-width="1" fill="none"></path></g></g><mask></mask><g stroke-linecap="round"><g transform="translate(81.42201432580674 159.1138726101979) rotate(0 60.43063252100802 53.94603713527877)"><path d="M1 -0.2 C20.62 17.83, 99.07 90.17, 118.7 108.19 M0.06 -1.35 C19.95 16.81, 100.62 90.91, 120.8 109.24" stroke="#000000" stroke-width="1" fill="none"></path></g><g transform="translate(81.42201432580674 159.1138726101979) rotate(0 60.43063252100802 53.94603713527877)"><path d="M92.74 95.83 C102.12 100.12, 112.29 106.4, 122.11 107.35 M92.44 97.16 C101.05 101.9, 109.54 103.9, 120.71 108.61" stroke="#000000" stroke-width="1" fill="none"></path></g><g transform="translate(81.42201432580674 159.1138726101979) rotate(0 60.43063252100802 53.94603713527877)"><path d="M106.58 80.69 C110.68 90.88, 115.56 102.94, 122.11 107.35 M106.29 82.02 C110.86 90.94, 115.42 97.25, 120.71 108.61" stroke="#000000" stroke-width="1" fill="none"></path></g></g><mask></mask></svg>