<svg xmlns="http://www.w3.org/2000/svg" xmlns:xlink="http://www.w3.org/1999/xlink" width="600" height="400" viewBox="0 0 2400 1600">
<defs>
  <clipPath id="clip510">
    <rect x="0" y="0" width="2400" height="1600"></rect>
  </clipPath>
</defs>
<path clip-path="url(#clip510)" d="M0 1600 L2400 1600 L2400 0 L0 0  Z" fill="#ffffff" fill-rule="evenodd" fill-opacity="1"></path>
<defs>
  <clipPath id="clip511">
    <rect x="480" y="0" width="1681" height="1600"></rect>
  </clipPath>
</defs>
<path clip-path="url(#clip510)" d="M156.112 1486.45 L2352.76 1486.45 L2352.76 47.2441 L156.112 47.2441  Z" fill="#ffffff" fill-rule="evenodd" fill-opacity="1"></path>
<defs>
  <clipPath id="clip512">
    <rect x="156" y="47" width="2198" height="1440"></rect>
  </clipPath>
</defs>
<polyline clip-path="url(#clip512)" style="stroke:#000000; stroke-linecap:round; stroke-linejoin:round; stroke-width:2; stroke-opacity:0.1; fill:none" points="207.99,1486.45 207.99,47.2441 "></polyline>
<polyline clip-path="url(#clip512)" style="stroke:#000000; stroke-linecap:round; stroke-linejoin:round; stroke-width:2; stroke-opacity:0.1; fill:none" points="734.912,1486.45 734.912,47.2441 "></polyline>
<polyline clip-path="url(#clip512)" style="stroke:#000000; stroke-linecap:round; stroke-linejoin:round; stroke-width:2; stroke-opacity:0.1; fill:none" points="1261.83,1486.45 1261.83,47.2441 "></polyline>
<polyline clip-path="url(#clip512)" style="stroke:#000000; stroke-linecap:round; stroke-linejoin:round; stroke-width:2; stroke-opacity:0.1; fill:none" points="1788.76,1486.45 1788.76,47.2441 "></polyline>
<polyline clip-path="url(#clip512)" style="stroke:#000000; stroke-linecap:round; stroke-linejoin:round; stroke-width:2; stroke-opacity:0.1; fill:none" points="2315.68,1486.45 2315.68,47.2441 "></polyline>
<polyline clip-path="url(#clip510)" style="stroke:#000000; stroke-linecap:round; stroke-linejoin:round; stroke-width:4; stroke-opacity:1; fill:none" points="156.112,1486.45 2352.76,1486.45 "></polyline>
<polyline clip-path="url(#clip510)" style="stroke:#000000; stroke-linecap:round; stroke-linejoin:round; stroke-width:4; stroke-opacity:1; fill:none" points="207.99,1486.45 207.99,1467.55 "></polyline>
<polyline clip-path="url(#clip510)" style="stroke:#000000; stroke-linecap:round; stroke-linejoin:round; stroke-width:4; stroke-opacity:1; fill:none" points="734.912,1486.45 734.912,1467.55 "></polyline>
<polyline clip-path="url(#clip510)" style="stroke:#000000; stroke-linecap:round; stroke-linejoin:round; stroke-width:4; stroke-opacity:1; fill:none" points="1261.83,1486.45 1261.83,1467.55 "></polyline>
<polyline clip-path="url(#clip510)" style="stroke:#000000; stroke-linecap:round; stroke-linejoin:round; stroke-width:4; stroke-opacity:1; fill:none" points="1788.76,1486.45 1788.76,1467.55 "></polyline>
<polyline clip-path="url(#clip510)" style="stroke:#000000; stroke-linecap:round; stroke-linejoin:round; stroke-width:4; stroke-opacity:1; fill:none" points="2315.68,1486.45 2315.68,1467.55 "></polyline>
<path clip-path="url(#clip510)" d="M170.293 1517.37 Q166.682 1517.37 164.853 1520.93 Q163.048 1524.47 163.048 1531.6 Q163.048 1538.71 164.853 1542.27 Q166.682 1545.82 170.293 1545.82 Q173.927 1545.82 175.733 1542.27 Q177.562 1538.71 177.562 1531.6 Q177.562 1524.47 175.733 1520.93 Q173.927 1517.37 170.293 1517.37 M170.293 1513.66 Q176.103 1513.66 179.159 1518.27 Q182.238 1522.85 182.238 1531.6 Q182.238 1540.33 179.159 1544.94 Q176.103 1549.52 170.293 1549.52 Q164.483 1549.52 161.404 1544.94 Q158.349 1540.33 158.349 1531.6 Q158.349 1522.85 161.404 1518.27 Q164.483 1513.66 170.293 1513.66 Z" fill="#000000" fill-rule="nonzero" fill-opacity="1"></path><path clip-path="url(#clip510)" d="M190.455 1542.97 L195.339 1542.97 L195.339 1548.85 L190.455 1548.85 L190.455 1542.97 Z" fill="#000000" fill-rule="nonzero" fill-opacity="1"></path><path clip-path="url(#clip510)" d="M215.524 1517.37 Q211.913 1517.37 210.085 1520.93 Q208.279 1524.47 208.279 1531.6 Q208.279 1538.71 210.085 1542.27 Q211.913 1545.82 215.524 1545.82 Q219.159 1545.82 220.964 1542.27 Q222.793 1538.71 222.793 1531.6 Q222.793 1524.47 220.964 1520.93 Q219.159 1517.37 215.524 1517.37 M215.524 1513.66 Q221.335 1513.66 224.39 1518.27 Q227.469 1522.85 227.469 1531.6 Q227.469 1540.33 224.39 1544.94 Q221.335 1549.52 215.524 1549.52 Q209.714 1549.52 206.636 1544.94 Q203.58 1540.33 203.58 1531.6 Q203.58 1522.85 206.636 1518.27 Q209.714 1513.66 215.524 1513.66 Z" fill="#000000" fill-rule="nonzero" fill-opacity="1"></path><path clip-path="url(#clip510)" d="M245.686 1517.37 Q242.075 1517.37 240.247 1520.93 Q238.441 1524.47 238.441 1531.6 Q238.441 1538.71 240.247 1542.27 Q242.075 1545.82 245.686 1545.82 Q249.321 1545.82 251.126 1542.27 Q252.955 1538.71 252.955 1531.6 Q252.955 1524.47 251.126 1520.93 Q249.321 1517.37 245.686 1517.37 M245.686 1513.66 Q251.496 1513.66 254.552 1518.27 Q257.631 1522.85 257.631 1531.6 Q257.631 1540.33 254.552 1544.94 Q251.496 1549.52 245.686 1549.52 Q239.876 1549.52 236.797 1544.94 Q233.742 1540.33 233.742 1531.6 Q233.742 1522.85 236.797 1518.27 Q239.876 1513.66 245.686 1513.66 Z" fill="#000000" fill-rule="nonzero" fill-opacity="1"></path><path clip-path="url(#clip510)" d="M697.713 1517.37 Q694.102 1517.37 692.274 1520.93 Q690.468 1524.47 690.468 1531.6 Q690.468 1538.71 692.274 1542.27 Q694.102 1545.82 697.713 1545.82 Q701.348 1545.82 703.153 1542.27 Q704.982 1538.71 704.982 1531.6 Q704.982 1524.47 703.153 1520.93 Q701.348 1517.37 697.713 1517.37 M697.713 1513.66 Q703.524 1513.66 706.579 1518.27 Q709.658 1522.85 709.658 1531.6 Q709.658 1540.33 706.579 1544.94 Q703.524 1549.52 697.713 1549.52 Q691.903 1549.52 688.825 1544.94 Q685.769 1540.33 685.769 1531.6 Q685.769 1522.85 688.825 1518.27 Q691.903 1513.66 697.713 1513.66 Z" fill="#000000" fill-rule="nonzero" fill-opacity="1"></path><path clip-path="url(#clip510)" d="M717.875 1542.97 L722.76 1542.97 L722.76 1548.85 L717.875 1548.85 L717.875 1542.97 Z" fill="#000000" fill-rule="nonzero" fill-opacity="1"></path><path clip-path="url(#clip510)" d="M736.972 1544.91 L753.292 1544.91 L753.292 1548.85 L731.347 1548.85 L731.347 1544.91 Q734.009 1542.16 738.593 1537.53 Q743.199 1532.88 744.38 1531.53 Q746.625 1529.01 747.505 1527.27 Q748.408 1525.51 748.408 1523.82 Q748.408 1521.07 746.463 1519.33 Q744.542 1517.6 741.44 1517.6 Q739.241 1517.6 736.787 1518.36 Q734.357 1519.13 731.579 1520.68 L731.579 1515.95 Q734.403 1514.82 736.857 1514.24 Q739.31 1513.66 741.347 1513.66 Q746.718 1513.66 749.912 1516.35 Q753.107 1519.03 753.107 1523.52 Q753.107 1525.65 752.296 1527.57 Q751.509 1529.47 749.403 1532.07 Q748.824 1532.74 745.722 1535.95 Q742.621 1539.15 736.972 1544.91 Z" fill="#000000" fill-rule="nonzero" fill-opacity="1"></path><path clip-path="url(#clip510)" d="M763.153 1514.29 L781.509 1514.29 L781.509 1518.22 L767.435 1518.22 L767.435 1526.7 Q768.454 1526.35 769.472 1526.19 Q770.491 1526 771.509 1526 Q777.296 1526 780.676 1529.17 Q784.055 1532.34 784.055 1537.76 Q784.055 1543.34 780.583 1546.44 Q777.111 1549.52 770.792 1549.52 Q768.616 1549.52 766.347 1549.15 Q764.102 1548.78 761.694 1548.04 L761.694 1543.34 Q763.778 1544.47 766 1545.03 Q768.222 1545.58 770.699 1545.58 Q774.704 1545.58 777.042 1543.48 Q779.38 1541.37 779.38 1537.76 Q779.38 1534.15 777.042 1532.04 Q774.704 1529.94 770.699 1529.94 Q768.824 1529.94 766.949 1530.35 Q765.097 1530.77 763.153 1531.65 L763.153 1514.29 Z" fill="#000000" fill-rule="nonzero" fill-opacity="1"></path><path clip-path="url(#clip510)" d="M1224.14 1517.37 Q1220.53 1517.37 1218.7 1520.93 Q1216.89 1524.47 1216.89 1531.6 Q1216.89 1538.71 1218.7 1542.27 Q1220.53 1545.82 1224.14 1545.82 Q1227.77 1545.82 1229.58 1542.27 Q1231.41 1538.71 1231.41 1531.6 Q1231.41 1524.47 1229.58 1520.93 Q1227.77 1517.37 1224.14 1517.37 M1224.14 1513.66 Q1229.95 1513.66 1233 1518.27 Q1236.08 1522.85 1236.08 1531.6 Q1236.08 1540.33 1233 1544.94 Q1229.95 1549.52 1224.14 1549.52 Q1218.33 1549.52 1215.25 1544.94 Q1212.19 1540.33 1212.19 1531.6 Q1212.19 1522.85 1215.25 1518.27 Q1218.33 1513.66 1224.14 1513.66 Z" fill="#000000" fill-rule="nonzero" fill-opacity="1"></path><path clip-path="url(#clip510)" d="M1244.3 1542.97 L1249.18 1542.97 L1249.18 1548.85 L1244.3 1548.85 L1244.3 1542.97 Z" fill="#000000" fill-rule="nonzero" fill-opacity="1"></path><path clip-path="url(#clip510)" d="M1259.42 1514.29 L1277.77 1514.29 L1277.77 1518.22 L1263.7 1518.22 L1263.7 1526.7 Q1264.72 1526.35 1265.74 1526.19 Q1266.75 1526 1267.77 1526 Q1273.56 1526 1276.94 1529.17 Q1280.32 1532.34 1280.32 1537.76 Q1280.32 1543.34 1276.85 1546.44 Q1273.37 1549.52 1267.05 1549.52 Q1264.88 1549.52 1262.61 1549.15 Q1260.36 1548.78 1257.96 1548.04 L1257.96 1543.34 Q1260.04 1544.47 1262.26 1545.03 Q1264.49 1545.58 1266.96 1545.58 Q1270.97 1545.58 1273.3 1543.48 Q1275.64 1541.37 1275.64 1537.76 Q1275.64 1534.15 1273.3 1532.04 Q1270.97 1529.94 1266.96 1529.94 Q1265.09 1529.94 1263.21 1530.35 Q1261.36 1530.77 1259.42 1531.65 L1259.42 1514.29 Z" fill="#000000" fill-rule="nonzero" fill-opacity="1"></path><path clip-path="url(#clip510)" d="M1299.53 1517.37 Q1295.92 1517.37 1294.09 1520.93 Q1292.29 1524.47 1292.29 1531.6 Q1292.29 1538.71 1294.09 1542.27 Q1295.92 1545.82 1299.53 1545.82 Q1303.17 1545.82 1304.97 1542.27 Q1306.8 1538.71 1306.8 1531.6 Q1306.8 1524.47 1304.97 1520.93 Q1303.17 1517.37 1299.53 1517.37 M1299.53 1513.66 Q1305.34 1513.66 1308.4 1518.27 Q1311.48 1522.85 1311.48 1531.6 Q1311.48 1540.33 1308.4 1544.94 Q1305.34 1549.52 1299.53 1549.52 Q1293.72 1549.52 1290.64 1544.94 Q1287.59 1540.33 1287.59 1531.6 Q1287.59 1522.85 1290.64 1518.27 Q1293.72 1513.66 1299.53 1513.66 Z" fill="#000000" fill-rule="nonzero" fill-opacity="1"></path><path clip-path="url(#clip510)" d="M1751.56 1517.37 Q1747.95 1517.37 1746.12 1520.93 Q1744.31 1524.47 1744.31 1531.6 Q1744.31 1538.71 1746.12 1542.27 Q1747.95 1545.82 1751.56 1545.82 Q1755.19 1545.82 1757 1542.27 Q1758.83 1538.71 1758.83 1531.6 Q1758.83 1524.47 1757 1520.93 Q1755.19 1517.37 1751.56 1517.37 M1751.56 1513.66 Q1757.37 1513.66 1760.42 1518.27 Q1763.5 1522.85 1763.5 1531.6 Q1763.5 1540.33 1760.42 1544.94 Q1757.37 1549.52 1751.56 1549.52 Q1745.75 1549.52 1742.67 1544.94 Q1739.61 1540.33 1739.61 1531.6 Q1739.61 1522.85 1742.67 1518.27 Q1745.75 1513.66 1751.56 1513.66 Z" fill="#000000" fill-rule="nonzero" fill-opacity="1"></path><path clip-path="url(#clip510)" d="M1771.72 1542.97 L1776.6 1542.97 L1776.6 1548.85 L1771.72 1548.85 L1771.72 1542.97 Z" fill="#000000" fill-rule="nonzero" fill-opacity="1"></path><path clip-path="url(#clip510)" d="M1785.61 1514.29 L1807.83 1514.29 L1807.83 1516.28 L1795.28 1548.85 L1790.4 1548.85 L1802.21 1518.22 L1785.61 1518.22 L1785.61 1514.29 Z" fill="#000000" fill-rule="nonzero" fill-opacity="1"></path><path clip-path="url(#clip510)" d="M1817 1514.29 L1835.35 1514.29 L1835.35 1518.22 L1821.28 1518.22 L1821.28 1526.7 Q1822.3 1526.35 1823.32 1526.19 Q1824.34 1526 1825.35 1526 Q1831.14 1526 1834.52 1529.17 Q1837.9 1532.34 1837.9 1537.76 Q1837.9 1543.34 1834.43 1546.44 Q1830.96 1549.52 1824.64 1549.52 Q1822.46 1549.52 1820.19 1549.15 Q1817.95 1548.78 1815.54 1548.04 L1815.54 1543.34 Q1817.62 1544.47 1819.84 1545.03 Q1822.07 1545.58 1824.54 1545.58 Q1828.55 1545.58 1830.89 1543.48 Q1833.22 1541.37 1833.22 1537.76 Q1833.22 1534.15 1830.89 1532.04 Q1828.55 1529.94 1824.54 1529.94 Q1822.67 1529.94 1820.79 1530.35 Q1818.94 1530.77 1817 1531.65 L1817 1514.29 Z" fill="#000000" fill-rule="nonzero" fill-opacity="1"></path><path clip-path="url(#clip510)" d="M2267.75 1544.91 L2275.39 1544.91 L2275.39 1518.55 L2267.08 1520.21 L2267.08 1515.95 L2275.34 1514.29 L2280.02 1514.29 L2280.02 1544.91 L2287.66 1544.91 L2287.66 1548.85 L2267.75 1548.85 L2267.75 1544.91 Z" fill="#000000" fill-rule="nonzero" fill-opacity="1"></path><path clip-path="url(#clip510)" d="M2297.1 1542.97 L2301.99 1542.97 L2301.99 1548.85 L2297.1 1548.85 L2297.1 1542.97 Z" fill="#000000" fill-rule="nonzero" fill-opacity="1"></path><path clip-path="url(#clip510)" d="M2322.17 1517.37 Q2318.56 1517.37 2316.73 1520.93 Q2314.93 1524.47 2314.93 1531.6 Q2314.93 1538.71 2316.73 1542.27 Q2318.56 1545.82 2322.17 1545.82 Q2325.81 1545.82 2327.61 1542.27 Q2329.44 1538.71 2329.44 1531.6 Q2329.44 1524.47 2327.61 1520.93 Q2325.81 1517.37 2322.17 1517.37 M2322.17 1513.66 Q2327.98 1513.66 2331.04 1518.27 Q2334.12 1522.85 2334.12 1531.6 Q2334.12 1540.33 2331.04 1544.94 Q2327.98 1549.52 2322.17 1549.52 Q2316.36 1549.52 2313.28 1544.94 Q2310.23 1540.33 2310.23 1531.6 Q2310.23 1522.85 2313.28 1518.27 Q2316.36 1513.66 2322.17 1513.66 Z" fill="#000000" fill-rule="nonzero" fill-opacity="1"></path><path clip-path="url(#clip510)" d="M2352.33 1517.37 Q2348.72 1517.37 2346.89 1520.93 Q2345.09 1524.47 2345.09 1531.6 Q2345.09 1538.71 2346.89 1542.27 Q2348.72 1545.82 2352.33 1545.82 Q2355.97 1545.82 2357.77 1542.27 Q2359.6 1538.71 2359.6 1531.6 Q2359.6 1524.47 2357.77 1520.93 Q2355.97 1517.37 2352.33 1517.37 M2352.33 1513.66 Q2358.14 1513.66 2361.2 1518.27 Q2364.28 1522.85 2364.28 1531.6 Q2364.28 1540.33 2361.2 1544.94 Q2358.14 1549.52 2352.33 1549.52 Q2346.52 1549.52 2343.45 1544.94 Q2340.39 1540.33 2340.39 1531.6 Q2340.39 1522.85 2343.45 1518.27 Q2346.52 1513.66 2352.33 1513.66 Z" fill="#000000" fill-rule="nonzero" fill-opacity="1"></path><polyline clip-path="url(#clip512)" style="stroke:#000000; stroke-linecap:round; stroke-linejoin:round; stroke-width:2; stroke-opacity:0.1; fill:none" points="156.112,1448.06 2352.76,1448.06 "></polyline>
<polyline clip-path="url(#clip512)" style="stroke:#000000; stroke-linecap:round; stroke-linejoin:round; stroke-width:2; stroke-opacity:0.1; fill:none" points="156.112,989.107 2352.76,989.107 "></polyline>
<polyline clip-path="url(#clip512)" style="stroke:#000000; stroke-linecap:round; stroke-linejoin:round; stroke-width:2; stroke-opacity:0.1; fill:none" points="156.112,530.155 2352.76,530.155 "></polyline>
<polyline clip-path="url(#clip512)" style="stroke:#000000; stroke-linecap:round; stroke-linejoin:round; stroke-width:2; stroke-opacity:0.1; fill:none" points="156.112,71.2036 2352.76,71.2036 "></polyline>
<polyline clip-path="url(#clip510)" style="stroke:#000000; stroke-linecap:round; stroke-linejoin:round; stroke-width:4; stroke-opacity:1; fill:none" points="156.112,1486.45 156.112,47.2441 "></polyline>
<polyline clip-path="url(#clip510)" style="stroke:#000000; stroke-linecap:round; stroke-linejoin:round; stroke-width:4; stroke-opacity:1; fill:none" points="156.112,1448.06 175.01,1448.06 "></polyline>
<polyline clip-path="url(#clip510)" style="stroke:#000000; stroke-linecap:round; stroke-linejoin:round; stroke-width:4; stroke-opacity:1; fill:none" points="156.112,989.107 175.01,989.107 "></polyline>
<polyline clip-path="url(#clip510)" style="stroke:#000000; stroke-linecap:round; stroke-linejoin:round; stroke-width:4; stroke-opacity:1; fill:none" points="156.112,530.155 175.01,530.155 "></polyline>
<polyline clip-path="url(#clip510)" style="stroke:#000000; stroke-linecap:round; stroke-linejoin:round; stroke-width:4; stroke-opacity:1; fill:none" points="156.112,71.2036 175.01,71.2036 "></polyline>
<path clip-path="url(#clip510)" d="M62.9365 1433.86 Q59.3254 1433.86 57.4967 1437.42 Q55.6912 1440.96 55.6912 1448.09 Q55.6912 1455.2 57.4967 1458.76 Q59.3254 1462.31 62.9365 1462.31 Q66.5707 1462.31 68.3763 1458.76 Q70.205 1455.2 70.205 1448.09 Q70.205 1440.96 68.3763 1437.42 Q66.5707 1433.86 62.9365 1433.86 M62.9365 1430.15 Q68.7467 1430.15 71.8022 1434.76 Q74.8809 1439.34 74.8809 1448.09 Q74.8809 1456.82 71.8022 1461.43 Q68.7467 1466.01 62.9365 1466.01 Q57.1264 1466.01 54.0477 1461.43 Q50.9921 1456.82 50.9921 1448.09 Q50.9921 1439.34 54.0477 1434.76 Q57.1264 1430.15 62.9365 1430.15 Z" fill="#000000" fill-rule="nonzero" fill-opacity="1"></path><path clip-path="url(#clip510)" d="M83.0984 1459.46 L87.9827 1459.46 L87.9827 1465.34 L83.0984 1465.34 L83.0984 1459.46 Z" fill="#000000" fill-rule="nonzero" fill-opacity="1"></path><path clip-path="url(#clip510)" d="M108.168 1433.86 Q104.557 1433.86 102.728 1437.42 Q100.922 1440.96 100.922 1448.09 Q100.922 1455.2 102.728 1458.76 Q104.557 1462.31 108.168 1462.31 Q111.802 1462.31 113.608 1458.76 Q115.436 1455.2 115.436 1448.09 Q115.436 1440.96 113.608 1437.42 Q111.802 1433.86 108.168 1433.86 M108.168 1430.15 Q113.978 1430.15 117.033 1434.76 Q120.112 1439.34 120.112 1448.09 Q120.112 1456.82 117.033 1461.43 Q113.978 1466.01 108.168 1466.01 Q102.358 1466.01 99.2789 1461.43 Q96.2234 1456.82 96.2234 1448.09 Q96.2234 1439.34 99.2789 1434.76 Q102.358 1430.15 108.168 1430.15 Z" fill="#000000" fill-rule="nonzero" fill-opacity="1"></path><path clip-path="url(#clip510)" d="M63.9319 974.906 Q60.3208 974.906 58.4921 978.47 Q56.6865 982.012 56.6865 989.142 Q56.6865 996.248 58.4921 999.813 Q60.3208 1003.35 63.9319 1003.35 Q67.5661 1003.35 69.3717 999.813 Q71.2004 996.248 71.2004 989.142 Q71.2004 982.012 69.3717 978.47 Q67.5661 974.906 63.9319 974.906 M63.9319 971.202 Q69.742 971.202 72.7976 975.808 Q75.8763 980.392 75.8763 989.142 Q75.8763 997.868 72.7976 1002.47 Q69.742 1007.06 63.9319 1007.06 Q58.1217 1007.06 55.043 1002.47 Q51.9875 997.868 51.9875 989.142 Q51.9875 980.392 55.043 975.808 Q58.1217 971.202 63.9319 971.202 Z" fill="#000000" fill-rule="nonzero" fill-opacity="1"></path><path clip-path="url(#clip510)" d="M84.0938 1000.51 L88.978 1000.51 L88.978 1006.39 L84.0938 1006.39 L84.0938 1000.51 Z" fill="#000000" fill-rule="nonzero" fill-opacity="1"></path><path clip-path="url(#clip510)" d="M99.2095 971.827 L117.566 971.827 L117.566 975.762 L103.492 975.762 L103.492 984.234 Q104.51 983.887 105.529 983.725 Q106.547 983.54 107.566 983.54 Q113.353 983.54 116.733 986.711 Q120.112 989.882 120.112 995.299 Q120.112 1000.88 116.64 1003.98 Q113.168 1007.06 106.848 1007.06 Q104.672 1007.06 102.404 1006.69 Q100.159 1006.32 97.7511 1005.58 L97.7511 1000.88 Q99.8345 1002.01 102.057 1002.57 Q104.279 1003.12 106.756 1003.12 Q110.76 1003.12 113.098 1001.02 Q115.436 998.91 115.436 995.299 Q115.436 991.688 113.098 989.581 Q110.76 987.475 106.756 987.475 Q104.881 987.475 103.006 987.892 Q101.154 988.308 99.2095 989.188 L99.2095 971.827 Z" fill="#000000" fill-rule="nonzero" fill-opacity="1"></path><path clip-path="url(#clip510)" d="M53.7467 543.5 L61.3856 543.5 L61.3856 517.135 L53.0754 518.801 L53.0754 514.542 L61.3393 512.875 L66.0152 512.875 L66.0152 543.5 L73.654 543.5 L73.654 547.435 L53.7467 547.435 L53.7467 543.5 Z" fill="#000000" fill-rule="nonzero" fill-opacity="1"></path><path clip-path="url(#clip510)" d="M83.0984 541.556 L87.9827 541.556 L87.9827 547.435 L83.0984 547.435 L83.0984 541.556 Z" fill="#000000" fill-rule="nonzero" fill-opacity="1"></path><path clip-path="url(#clip510)" d="M108.168 515.954 Q104.557 515.954 102.728 519.519 Q100.922 523.06 100.922 530.19 Q100.922 537.296 102.728 540.861 Q104.557 544.403 108.168 544.403 Q111.802 544.403 113.608 540.861 Q115.436 537.296 115.436 530.19 Q115.436 523.06 113.608 519.519 Q111.802 515.954 108.168 515.954 M108.168 512.25 Q113.978 512.25 117.033 516.857 Q120.112 521.44 120.112 530.19 Q120.112 538.917 117.033 543.523 Q113.978 548.107 108.168 548.107 Q102.358 548.107 99.2789 543.523 Q96.2234 538.917 96.2234 530.19 Q96.2234 521.44 99.2789 516.857 Q102.358 512.25 108.168 512.25 Z" fill="#000000" fill-rule="nonzero" fill-opacity="1"></path><path clip-path="url(#clip510)" d="M54.7421 84.5485 L62.381 84.5485 L62.381 58.1829 L54.0708 59.8495 L54.0708 55.5903 L62.3347 53.9236 L67.0106 53.9236 L67.0106 84.5485 L74.6494 84.5485 L74.6494 88.4836 L54.7421 88.4836 L54.7421 84.5485 Z" fill="#000000" fill-rule="nonzero" fill-opacity="1"></path><path clip-path="url(#clip510)" d="M84.0938 82.6041 L88.978 82.6041 L88.978 88.4836 L84.0938 88.4836 L84.0938 82.6041 Z" fill="#000000" fill-rule="nonzero" fill-opacity="1"></path><path clip-path="url(#clip510)" d="M99.2095 53.9236 L117.566 53.9236 L117.566 57.8588 L103.492 57.8588 L103.492 66.331 Q104.51 65.9838 105.529 65.8217 Q106.547 65.6365 107.566 65.6365 Q113.353 65.6365 116.733 68.8078 Q120.112 71.9791 120.112 77.3957 Q120.112 82.9744 116.64 86.0763 Q113.168 89.1549 106.848 89.1549 Q104.672 89.1549 102.404 88.7846 Q100.159 88.4142 97.7511 87.6735 L97.7511 82.9744 Q99.8345 84.1087 102.057 84.6642 Q104.279 85.2198 106.756 85.2198 Q110.76 85.2198 113.098 83.1133 Q115.436 81.0068 115.436 77.3957 Q115.436 73.7847 113.098 71.6782 Q110.76 69.5717 106.756 69.5717 Q104.881 69.5717 103.006 69.9884 Q101.154 70.405 99.2095 71.2847 L99.2095 53.9236 Z" fill="#000000" fill-rule="nonzero" fill-opacity="1"></path><circle clip-path="url(#clip512)" cx="707.675" cy="854.377" r="14.4" fill="#009af9" fill-rule="evenodd" fill-opacity="1" stroke="#000000" stroke-opacity="1" stroke-width="3.2"></circle>
<circle clip-path="url(#clip512)" cx="891.359" cy="471.492" r="14.4" fill="#009af9" fill-rule="evenodd" fill-opacity="1" stroke="#000000" stroke-opacity="1" stroke-width="3.2"></circle>
<circle clip-path="url(#clip512)" cx="1190.16" cy="472.116" r="14.4" fill="#009af9" fill-rule="evenodd" fill-opacity="1" stroke="#000000" stroke-opacity="1" stroke-width="3.2"></circle>
<circle clip-path="url(#clip512)" cx="1673.39" cy="256.393" r="14.4" fill="#009af9" fill-rule="evenodd" fill-opacity="1" stroke="#000000" stroke-opacity="1" stroke-width="3.2"></circle>
<circle clip-path="url(#clip512)" cx="2089.05" cy="277.86" r="14.4" fill="#009af9" fill-rule="evenodd" fill-opacity="1" stroke="#000000" stroke-opacity="1" stroke-width="3.2"></circle>
<circle clip-path="url(#clip512)" cx="744.627" cy="1054.96" r="14.4" fill="#009af9" fill-rule="evenodd" fill-opacity="1" stroke="#000000" stroke-opacity="1" stroke-width="3.2"></circle>
<circle clip-path="url(#clip512)" cx="1752.21" cy="895.963" r="14.4" fill="#009af9" fill-rule="evenodd" fill-opacity="1" stroke="#000000" stroke-opacity="1" stroke-width="3.2"></circle>
<circle clip-path="url(#clip512)" cx="1672.17" cy="286.582" r="14.4" fill="#009af9" fill-rule="evenodd" fill-opacity="1" stroke="#000000" stroke-opacity="1" stroke-width="3.2"></circle>
<circle clip-path="url(#clip512)" cx="1260.03" cy="377.281" r="14.4" fill="#009af9" fill-rule="evenodd" fill-opacity="1" stroke="#000000" stroke-opacity="1" stroke-width="3.2"></circle>
<circle clip-path="url(#clip512)" cx="381.631" cy="1391.22" r="14.4" fill="#009af9" fill-rule="evenodd" fill-opacity="1" stroke="#000000" stroke-opacity="1" stroke-width="3.2"></circle>
<circle clip-path="url(#clip512)" cx="900.007" cy="880.365" r="14.4" fill="#009af9" fill-rule="evenodd" fill-opacity="1" stroke="#000000" stroke-opacity="1" stroke-width="3.2"></circle>
<circle clip-path="url(#clip512)" cx="1596.64" cy="583.758" r="14.4" fill="#009af9" fill-rule="evenodd" fill-opacity="1" stroke="#000000" stroke-opacity="1" stroke-width="3.2"></circle>
<circle clip-path="url(#clip512)" cx="409.716" cy="728.785" r="14.4" fill="#009af9" fill-rule="evenodd" fill-opacity="1" stroke="#000000" stroke-opacity="1" stroke-width="3.2"></circle>
<circle clip-path="url(#clip512)" cx="1025.79" cy="553.425" r="14.4" fill="#009af9" fill-rule="evenodd" fill-opacity="1" stroke="#000000" stroke-opacity="1" stroke-width="3.2"></circle>
<circle clip-path="url(#clip512)" cx="589.774" cy="991.832" r="14.4" fill="#009af9" fill-rule="evenodd" fill-opacity="1" stroke="#000000" stroke-opacity="1" stroke-width="3.2"></circle>
<circle clip-path="url(#clip512)" cx="780.796" cy="1051.02" r="14.4" fill="#009af9" fill-rule="evenodd" fill-opacity="1" stroke="#000000" stroke-opacity="1" stroke-width="3.2"></circle>
<circle clip-path="url(#clip512)" cx="564.417" cy="786.958" r="14.4" fill="#009af9" fill-rule="evenodd" fill-opacity="1" stroke="#000000" stroke-opacity="1" stroke-width="3.2"></circle>
<circle clip-path="url(#clip512)" cx="2211.93" cy="772.824" r="14.4" fill="#009af9" fill-rule="evenodd" fill-opacity="1" stroke="#000000" stroke-opacity="1" stroke-width="3.2"></circle>
<circle clip-path="url(#clip512)" cx="1680.32" cy="642.242" r="14.4" fill="#009af9" fill-rule="evenodd" fill-opacity="1" stroke="#000000" stroke-opacity="1" stroke-width="3.2"></circle>
<circle clip-path="url(#clip512)" cx="516.794" cy="780.371" r="14.4" fill="#009af9" fill-rule="evenodd" fill-opacity="1" stroke="#000000" stroke-opacity="1" stroke-width="3.2"></circle>
<circle clip-path="url(#clip512)" cx="1888.21" cy="589.862" r="14.4" fill="#009af9" fill-rule="evenodd" fill-opacity="1" stroke="#000000" stroke-opacity="1" stroke-width="3.2"></circle>
<circle clip-path="url(#clip512)" cx="743.633" cy="807.601" r="14.4" fill="#009af9" fill-rule="evenodd" fill-opacity="1" stroke="#000000" stroke-opacity="1" stroke-width="3.2"></circle>
<circle clip-path="url(#clip512)" cx="1383.97" cy="488.661" r="14.4" fill="#009af9" fill-rule="evenodd" fill-opacity="1" stroke="#000000" stroke-opacity="1" stroke-width="3.2"></circle>
<circle clip-path="url(#clip512)" cx="2208.11" cy="382.282" r="14.4" fill="#009af9" fill-rule="evenodd" fill-opacity="1" stroke="#000000" stroke-opacity="1" stroke-width="3.2"></circle>
<circle clip-path="url(#clip512)" cx="1507.75" cy="876.202" r="14.4" fill="#009af9" fill-rule="evenodd" fill-opacity="1" stroke="#000000" stroke-opacity="1" stroke-width="3.2"></circle>
<circle clip-path="url(#clip512)" cx="1344.67" cy="901.363" r="14.4" fill="#009af9" fill-rule="evenodd" fill-opacity="1" stroke="#000000" stroke-opacity="1" stroke-width="3.2"></circle>
<circle clip-path="url(#clip512)" cx="2262.01" cy="230.028" r="14.4" fill="#009af9" fill-rule="evenodd" fill-opacity="1" stroke="#000000" stroke-opacity="1" stroke-width="3.2"></circle>
<circle clip-path="url(#clip512)" cx="2227.45" cy="738.529" r="14.4" fill="#009af9" fill-rule="evenodd" fill-opacity="1" stroke="#000000" stroke-opacity="1" stroke-width="3.2"></circle>
<circle clip-path="url(#clip512)" cx="859.392" cy="399.916" r="14.4" fill="#009af9" fill-rule="evenodd" fill-opacity="1" stroke="#000000" stroke-opacity="1" stroke-width="3.2"></circle>
<circle clip-path="url(#clip512)" cx="521.58" cy="1376.75" r="14.4" fill="#009af9" fill-rule="evenodd" fill-opacity="1" stroke="#000000" stroke-opacity="1" stroke-width="3.2"></circle>
<circle clip-path="url(#clip512)" cx="1281.76" cy="1228.23" r="14.4" fill="#009af9" fill-rule="evenodd" fill-opacity="1" stroke="#000000" stroke-opacity="1" stroke-width="3.2"></circle>
<circle clip-path="url(#clip512)" cx="338.861" cy="770.193" r="14.4" fill="#009af9" fill-rule="evenodd" fill-opacity="1" stroke="#000000" stroke-opacity="1" stroke-width="3.2"></circle>
<circle clip-path="url(#clip512)" cx="2239.45" cy="590.883" r="14.4" fill="#009af9" fill-rule="evenodd" fill-opacity="1" stroke="#000000" stroke-opacity="1" stroke-width="3.2"></circle>
<circle clip-path="url(#clip512)" cx="357.418" cy="1018.89" r="14.4" fill="#009af9" fill-rule="evenodd" fill-opacity="1" stroke="#000000" stroke-opacity="1" stroke-width="3.2"></circle>
<circle clip-path="url(#clip512)" cx="1274.67" cy="1445.72" r="14.4" fill="#009af9" fill-rule="evenodd" fill-opacity="1" stroke="#000000" stroke-opacity="1" stroke-width="3.2"></circle>
<circle clip-path="url(#clip512)" cx="1324.61" cy="1109.71" r="14.4" fill="#009af9" fill-rule="evenodd" fill-opacity="1" stroke="#000000" stroke-opacity="1" stroke-width="3.2"></circle>
<circle clip-path="url(#clip512)" cx="1481.32" cy="721.4" r="14.4" fill="#009af9" fill-rule="evenodd" fill-opacity="1" stroke="#000000" stroke-opacity="1" stroke-width="3.2"></circle>
<circle clip-path="url(#clip512)" cx="237.349" cy="618.394" r="14.4" fill="#009af9" fill-rule="evenodd" fill-opacity="1" stroke="#000000" stroke-opacity="1" stroke-width="3.2"></circle>
<circle clip-path="url(#clip512)" cx="1106.69" cy="822.15" r="14.4" fill="#009af9" fill-rule="evenodd" fill-opacity="1" stroke="#000000" stroke-opacity="1" stroke-width="3.2"></circle>
<circle clip-path="url(#clip512)" cx="1659.38" cy="812.019" r="14.4" fill="#009af9" fill-rule="evenodd" fill-opacity="1" stroke="#000000" stroke-opacity="1" stroke-width="3.2"></circle>
<circle clip-path="url(#clip512)" cx="473.185" cy="1020.94" r="14.4" fill="#009af9" fill-rule="evenodd" fill-opacity="1" stroke="#000000" stroke-opacity="1" stroke-width="3.2"></circle>
<circle clip-path="url(#clip512)" cx="2082.45" cy="220.785" r="14.4" fill="#009af9" fill-rule="evenodd" fill-opacity="1" stroke="#000000" stroke-opacity="1" stroke-width="3.2"></circle>
<circle clip-path="url(#clip512)" cx="1262.63" cy="564.985" r="14.4" fill="#009af9" fill-rule="evenodd" fill-opacity="1" stroke="#000000" stroke-opacity="1" stroke-width="3.2"></circle>
<circle clip-path="url(#clip512)" cx="2077.79" cy="497.6" r="14.4" fill="#009af9" fill-rule="evenodd" fill-opacity="1" stroke="#000000" stroke-opacity="1" stroke-width="3.2"></circle>
<circle clip-path="url(#clip512)" cx="1288.22" cy="543.266" r="14.4" fill="#009af9" fill-rule="evenodd" fill-opacity="1" stroke="#000000" stroke-opacity="1" stroke-width="3.2"></circle>
<circle clip-path="url(#clip512)" cx="1511.56" cy="631.729" r="14.4" fill="#009af9" fill-rule="evenodd" fill-opacity="1" stroke="#000000" stroke-opacity="1" stroke-width="3.2"></circle>
<circle clip-path="url(#clip512)" cx="232.436" cy="507.073" r="14.4" fill="#009af9" fill-rule="evenodd" fill-opacity="1" stroke="#000000" stroke-opacity="1" stroke-width="3.2"></circle>
<circle clip-path="url(#clip512)" cx="1998.72" cy="639.787" r="14.4" fill="#009af9" fill-rule="evenodd" fill-opacity="1" stroke="#000000" stroke-opacity="1" stroke-width="3.2"></circle>
<circle clip-path="url(#clip512)" cx="2027.51" cy="594.308" r="14.4" fill="#009af9" fill-rule="evenodd" fill-opacity="1" stroke="#000000" stroke-opacity="1" stroke-width="3.2"></circle>
<circle clip-path="url(#clip512)" cx="1748.71" cy="467.347" r="14.4" fill="#009af9" fill-rule="evenodd" fill-opacity="1" stroke="#000000" stroke-opacity="1" stroke-width="3.2"></circle>
<circle clip-path="url(#clip512)" cx="2290.59" cy="501.24" r="14.4" fill="#009af9" fill-rule="evenodd" fill-opacity="1" stroke="#000000" stroke-opacity="1" stroke-width="3.2"></circle>
<circle clip-path="url(#clip512)" cx="640.447" cy="925.847" r="14.4" fill="#009af9" fill-rule="evenodd" fill-opacity="1" stroke="#000000" stroke-opacity="1" stroke-width="3.2"></circle>
<circle clip-path="url(#clip512)" cx="1545.92" cy="939.103" r="14.4" fill="#009af9" fill-rule="evenodd" fill-opacity="1" stroke="#000000" stroke-opacity="1" stroke-width="3.2"></circle>
<circle clip-path="url(#clip512)" cx="1188.91" cy="523.203" r="14.4" fill="#009af9" fill-rule="evenodd" fill-opacity="1" stroke="#000000" stroke-opacity="1" stroke-width="3.2"></circle>
<circle clip-path="url(#clip512)" cx="2139.6" cy="576.755" r="14.4" fill="#009af9" fill-rule="evenodd" fill-opacity="1" stroke="#000000" stroke-opacity="1" stroke-width="3.2"></circle>
<circle clip-path="url(#clip512)" cx="1369.83" cy="689.532" r="14.4" fill="#009af9" fill-rule="evenodd" fill-opacity="1" stroke="#000000" stroke-opacity="1" stroke-width="3.2"></circle>
<circle clip-path="url(#clip512)" cx="1078.7" cy="1023.8" r="14.4" fill="#009af9" fill-rule="evenodd" fill-opacity="1" stroke="#000000" stroke-opacity="1" stroke-width="3.2"></circle>
<circle clip-path="url(#clip512)" cx="2115.56" cy="1022.07" r="14.4" fill="#009af9" fill-rule="evenodd" fill-opacity="1" stroke="#000000" stroke-opacity="1" stroke-width="3.2"></circle>
<circle clip-path="url(#clip512)" cx="1936.33" cy="599.311" r="14.4" fill="#009af9" fill-rule="evenodd" fill-opacity="1" stroke="#000000" stroke-opacity="1" stroke-width="3.2"></circle>
<circle clip-path="url(#clip512)" cx="1205.1" cy="674.251" r="14.4" fill="#009af9" fill-rule="evenodd" fill-opacity="1" stroke="#000000" stroke-opacity="1" stroke-width="3.2"></circle>
<circle clip-path="url(#clip512)" cx="1450.96" cy="914.226" r="14.4" fill="#009af9" fill-rule="evenodd" fill-opacity="1" stroke="#000000" stroke-opacity="1" stroke-width="3.2"></circle>
<circle clip-path="url(#clip512)" cx="1611.95" cy="842.164" r="14.4" fill="#009af9" fill-rule="evenodd" fill-opacity="1" stroke="#000000" stroke-opacity="1" stroke-width="3.2"></circle>
<circle clip-path="url(#clip512)" cx="746.153" cy="941.828" r="14.4" fill="#009af9" fill-rule="evenodd" fill-opacity="1" stroke="#000000" stroke-opacity="1" stroke-width="3.2"></circle>
<circle clip-path="url(#clip512)" cx="649.585" cy="694.653" r="14.4" fill="#009af9" fill-rule="evenodd" fill-opacity="1" stroke="#000000" stroke-opacity="1" stroke-width="3.2"></circle>
<circle clip-path="url(#clip512)" cx="2018.49" cy="512.373" r="14.4" fill="#009af9" fill-rule="evenodd" fill-opacity="1" stroke="#000000" stroke-opacity="1" stroke-width="3.2"></circle>
<circle clip-path="url(#clip512)" cx="2080.52" cy="455.644" r="14.4" fill="#009af9" fill-rule="evenodd" fill-opacity="1" stroke="#000000" stroke-opacity="1" stroke-width="3.2"></circle>
<circle clip-path="url(#clip512)" cx="1213.93" cy="631.168" r="14.4" fill="#009af9" fill-rule="evenodd" fill-opacity="1" stroke="#000000" stroke-opacity="1" stroke-width="3.2"></circle>
<circle clip-path="url(#clip512)" cx="2009.96" cy="466.776" r="14.4" fill="#009af9" fill-rule="evenodd" fill-opacity="1" stroke="#000000" stroke-opacity="1" stroke-width="3.2"></circle>
<circle clip-path="url(#clip512)" cx="593.555" cy="1263.53" r="14.4" fill="#009af9" fill-rule="evenodd" fill-opacity="1" stroke="#000000" stroke-opacity="1" stroke-width="3.2"></circle>
<circle clip-path="url(#clip512)" cx="734.423" cy="679.296" r="14.4" fill="#009af9" fill-rule="evenodd" fill-opacity="1" stroke="#000000" stroke-opacity="1" stroke-width="3.2"></circle>
<circle clip-path="url(#clip512)" cx="1877.81" cy="451.825" r="14.4" fill="#009af9" fill-rule="evenodd" fill-opacity="1" stroke="#000000" stroke-opacity="1" stroke-width="3.2"></circle>
<circle clip-path="url(#clip512)" cx="2230.73" cy="377.775" r="14.4" fill="#009af9" fill-rule="evenodd" fill-opacity="1" stroke="#000000" stroke-opacity="1" stroke-width="3.2"></circle>
<circle clip-path="url(#clip512)" cx="334.989" cy="719.269" r="14.4" fill="#009af9" fill-rule="evenodd" fill-opacity="1" stroke="#000000" stroke-opacity="1" stroke-width="3.2"></circle>
<circle clip-path="url(#clip512)" cx="1277.71" cy="729.612" r="14.4" fill="#009af9" fill-rule="evenodd" fill-opacity="1" stroke="#000000" stroke-opacity="1" stroke-width="3.2"></circle>
<circle clip-path="url(#clip512)" cx="218.281" cy="970.341" r="14.4" fill="#009af9" fill-rule="evenodd" fill-opacity="1" stroke="#000000" stroke-opacity="1" stroke-width="3.2"></circle>
<circle clip-path="url(#clip512)" cx="494.579" cy="787.52" r="14.4" fill="#009af9" fill-rule="evenodd" fill-opacity="1" stroke="#000000" stroke-opacity="1" stroke-width="3.2"></circle>
<circle clip-path="url(#clip512)" cx="1698.51" cy="673.169" r="14.4" fill="#009af9" fill-rule="evenodd" fill-opacity="1" stroke="#000000" stroke-opacity="1" stroke-width="3.2"></circle>
<circle clip-path="url(#clip512)" cx="1548.34" cy="335.24" r="14.4" fill="#009af9" fill-rule="evenodd" fill-opacity="1" stroke="#000000" stroke-opacity="1" stroke-width="3.2"></circle>
<circle clip-path="url(#clip512)" cx="607.865" cy="622.505" r="14.4" fill="#009af9" fill-rule="evenodd" fill-opacity="1" stroke="#000000" stroke-opacity="1" stroke-width="3.2"></circle>
<circle clip-path="url(#clip512)" cx="1627.93" cy="873.153" r="14.4" fill="#009af9" fill-rule="evenodd" fill-opacity="1" stroke="#000000" stroke-opacity="1" stroke-width="3.2"></circle>
<circle clip-path="url(#clip512)" cx="979.076" cy="971.532" r="14.4" fill="#009af9" fill-rule="evenodd" fill-opacity="1" stroke="#000000" stroke-opacity="1" stroke-width="3.2"></circle>
<circle clip-path="url(#clip512)" cx="1432" cy="438.112" r="14.4" fill="#009af9" fill-rule="evenodd" fill-opacity="1" stroke="#000000" stroke-opacity="1" stroke-width="3.2"></circle>
<circle clip-path="url(#clip512)" cx="1673.81" cy="814.325" r="14.4" fill="#009af9" fill-rule="evenodd" fill-opacity="1" stroke="#000000" stroke-opacity="1" stroke-width="3.2"></circle>
<circle clip-path="url(#clip512)" cx="855.33" cy="243.23" r="14.4" fill="#009af9" fill-rule="evenodd" fill-opacity="1" stroke="#000000" stroke-opacity="1" stroke-width="3.2"></circle>
<circle clip-path="url(#clip512)" cx="1946.56" cy="192.969" r="14.4" fill="#009af9" fill-rule="evenodd" fill-opacity="1" stroke="#000000" stroke-opacity="1" stroke-width="3.2"></circle>
<circle clip-path="url(#clip512)" cx="2281.48" cy="371.594" r="14.4" fill="#009af9" fill-rule="evenodd" fill-opacity="1" stroke="#000000" stroke-opacity="1" stroke-width="3.2"></circle>
<circle clip-path="url(#clip512)" cx="1558.25" cy="291.428" r="14.4" fill="#009af9" fill-rule="evenodd" fill-opacity="1" stroke="#000000" stroke-opacity="1" stroke-width="3.2"></circle>
<circle clip-path="url(#clip512)" cx="1619.06" cy="1072.57" r="14.4" fill="#009af9" fill-rule="evenodd" fill-opacity="1" stroke="#000000" stroke-opacity="1" stroke-width="3.2"></circle>
<circle clip-path="url(#clip512)" cx="1667.35" cy="933.198" r="14.4" fill="#009af9" fill-rule="evenodd" fill-opacity="1" stroke="#000000" stroke-opacity="1" stroke-width="3.2"></circle>
<circle clip-path="url(#clip512)" cx="363.925" cy="900.501" r="14.4" fill="#009af9" fill-rule="evenodd" fill-opacity="1" stroke="#000000" stroke-opacity="1" stroke-width="3.2"></circle>
<circle clip-path="url(#clip512)" cx="1133.02" cy="870.109" r="14.4" fill="#009af9" fill-rule="evenodd" fill-opacity="1" stroke="#000000" stroke-opacity="1" stroke-width="3.2"></circle>
<circle clip-path="url(#clip512)" cx="816.303" cy="969.04" r="14.4" fill="#009af9" fill-rule="evenodd" fill-opacity="1" stroke="#000000" stroke-opacity="1" stroke-width="3.2"></circle>
<circle clip-path="url(#clip512)" cx="2242.7" cy="628.4" r="14.4" fill="#009af9" fill-rule="evenodd" fill-opacity="1" stroke="#000000" stroke-opacity="1" stroke-width="3.2"></circle>
<circle clip-path="url(#clip512)" cx="1486.52" cy="87.9763" r="14.4" fill="#009af9" fill-rule="evenodd" fill-opacity="1" stroke="#000000" stroke-opacity="1" stroke-width="3.2"></circle>
<circle clip-path="url(#clip512)" cx="1313.16" cy="380.727" r="14.4" fill="#009af9" fill-rule="evenodd" fill-opacity="1" stroke="#000000" stroke-opacity="1" stroke-width="3.2"></circle>
<circle clip-path="url(#clip512)" cx="1540.76" cy="919.943" r="14.4" fill="#009af9" fill-rule="evenodd" fill-opacity="1" stroke="#000000" stroke-opacity="1" stroke-width="3.2"></circle>
<circle clip-path="url(#clip512)" cx="2221.71" cy="413.783" r="14.4" fill="#009af9" fill-rule="evenodd" fill-opacity="1" stroke="#000000" stroke-opacity="1" stroke-width="3.2"></circle>
<circle clip-path="url(#clip512)" cx="626.914" cy="710.576" r="14.4" fill="#009af9" fill-rule="evenodd" fill-opacity="1" stroke="#000000" stroke-opacity="1" stroke-width="3.2"></circle>
<circle clip-path="url(#clip512)" cx="485.749" cy="1050.38" r="14.4" fill="#009af9" fill-rule="evenodd" fill-opacity="1" stroke="#000000" stroke-opacity="1" stroke-width="3.2"></circle>
<circle clip-path="url(#clip512)" cx="1329.35" cy="614.566" r="14.4" fill="#009af9" fill-rule="evenodd" fill-opacity="1" stroke="#000000" stroke-opacity="1" stroke-width="3.2"></circle>
<polyline clip-path="url(#clip512)" style="stroke:#008000; stroke-linecap:round; stroke-linejoin:round; stroke-width:4; stroke-opacity:1; fill:none" points="707.675,773.555 891.359,741.557 1190.16,689.506 1673.39,605.327 2089.05,532.919 744.627,767.118 1752.21,591.596 1672.17,605.539 1260.03,677.334 381.631,830.352 900.007,740.05 1596.64,618.696 409.716,825.46 1025.79,718.139 589.774,794.093 780.796,760.817 564.417,798.511 2211.93,511.512 1680.32,604.119 516.794,806.807 1888.21,567.905 743.633,767.291 1383.97,655.743 2208.11,512.177 1507.75,634.181 1344.67,662.59 2262.01,502.789 2227.45,508.808 859.392,747.126 521.58,805.973 1281.76,673.549 338.861,837.803 2239.45,506.718 357.418,834.57 1274.67,674.784 1324.61,666.085 1481.32,638.785 237.349,855.486 1106.69,704.045 1659.38,607.767 473.185,814.403 2082.45,534.068 1262.63,676.881 2077.79,534.88 1288.22,672.423 1511.56,633.518 232.436,856.342 1998.72,548.653 2027.51,543.638 1748.71,592.206 2290.59,497.81 640.447,785.266 1545.92,627.531 1188.91,689.724 2139.6,524.112 1369.83,658.208 1078.7,708.923 2115.56,528.3 1936.33,559.523 1205.1,686.903 1450.96,644.074 1611.95,616.029 746.153,766.852 649.585,783.674 2018.49,545.21 2080.52,534.404 1213.93,685.365 2009.96,546.696 593.555,793.435 734.423,768.895 1877.81,569.716 2230.73,508.237 334.989,838.477 1277.71,674.254 218.281,858.808 494.579,810.676 1698.51,600.95 1548.34,627.111 607.865,790.942 1627.93,613.245 979.076,726.277 1432,647.376 1673.81,605.253 855.33,747.833 1946.56,557.739 2281.48,499.396 1558.25,625.384 1619.06,614.792 1667.35,606.379 363.925,833.436 1133.02,699.459 816.303,754.632 2242.7,506.152 1486.52,637.879 1313.16,668.08 1540.76,628.431 2221.71,509.809 626.914,787.624 485.749,812.214 1329.35,665.258 "></polyline>
<polyline clip-path="url(#clip512)" style="stroke:#000000; stroke-linecap:round; stroke-linejoin:round; stroke-width:4; stroke-opacity:1; fill:none" points="707.675,834.405 891.359,794.407 1190.16,729.343 1673.39,624.12 2089.05,533.61 744.627,826.358 1752.21,606.956 1672.17,624.385 1260.03,714.128 381.631,905.401 900.007,792.524 1596.64,640.831 409.716,899.286 1025.79,765.134 589.774,860.078 780.796,818.483 564.417,865.599 2211.93,506.852 1680.32,622.609 516.794,875.969 1888.21,577.342 743.633,826.575 1383.97,687.14 2208.11,507.683 1507.75,660.188 1344.67,695.698 2262.01,495.948 2227.45,503.472 859.392,801.368 521.58,874.927 1281.76,709.397 338.861,914.714 2239.45,500.859 357.418,910.674 1274.67,710.941 1324.61,700.067 1481.32,665.943 237.349,936.819 1106.69,747.518 1659.38,627.17 473.185,885.465 2082.45,535.046 1262.63,713.562 2077.79,536.061 1288.22,707.99 1511.56,659.359 232.436,937.889 1998.72,553.278 2027.51,547.009 1748.71,607.719 2290.59,489.724 640.447,849.044 1545.92,651.875 1188.91,729.616 2139.6,522.601 1369.83,690.221 1078.7,753.614 2115.56,527.836 1936.33,566.865 1205.1,726.09 1450.96,672.554 1611.95,637.498 746.153,826.026 649.585,847.054 2018.49,548.973 2080.52,535.466 1213.93,724.168 2009.96,550.831 593.555,859.254 734.423,828.58 1877.81,579.607 2230.73,502.757 334.989,915.558 1277.71,710.279 218.281,940.971 494.579,880.807 1698.51,618.649 1548.34,651.35 607.865,856.139 1627.93,634.017 979.076,775.307 1432,676.682 1673.81,624.027 855.33,802.253 1946.56,564.635 2281.48,491.707 1558.25,649.191 1619.06,635.951 1667.35,625.435 363.925,909.257 1133.02,741.785 816.303,810.751 2242.7,500.151 1486.52,664.81 1313.16,702.561 1540.76,653 2221.71,504.722 626.914,851.991 485.749,882.729 1329.35,699.033 "></polyline>
<polyline clip-path="url(#clip512)" style="stroke:#0000ff; stroke-linecap:round; stroke-linejoin:round; stroke-width:4; stroke-opacity:1; fill:none" points="707.675,829.145 891.359,790.443 1190.16,727.487 1673.39,625.673 2089.05,538.096 744.627,821.359 1752.21,609.065 1672.17,625.929 1260.03,712.765 381.631,897.841 900.007,788.621 1596.64,641.843 409.716,891.924 1025.79,762.119 589.774,853.986 780.796,813.739 564.417,859.329 2211.93,512.204 1680.32,624.212 516.794,869.363 1888.21,580.411 743.633,821.569 1383.97,686.651 2208.11,513.009 1507.75,660.573 1344.67,694.932 2262.01,501.654 2227.45,508.934 859.392,797.179 521.58,868.354 1281.76,708.187 338.861,906.852 2239.45,506.406 357.418,902.942 1274.67,709.681 1324.61,699.16 1481.32,666.141 237.349,928.241 1106.69,745.073 1659.38,628.624 473.185,878.551 2082.45,539.486 1262.63,712.217 2077.79,540.468 1288.22,706.826 1511.56,659.77 232.436,929.276 1998.72,557.126 2027.51,551.06 1748.71,609.804 2290.59,495.632 640.447,843.31 1545.92,652.53 1188.91,727.751 2139.6,527.444 1369.83,689.633 1078.7,750.972 2115.56,532.509 1936.33,570.273 1205.1,724.339 1450.96,672.538 1611.95,638.618 746.153,821.038 649.585,841.384 2018.49,552.961 2080.52,539.892 1213.93,722.48 2009.96,554.759 593.555,853.189 734.423,823.509 1877.81,582.602 2230.73,508.243 334.989,907.668 1277.71,709.041 218.281,932.258 494.579,874.043 1698.51,620.38 1548.34,652.021 607.865,850.174 1627.93,635.25 979.076,771.962 1432,676.532 1673.81,625.584 855.33,798.035 1946.56,568.116 2281.48,497.55 1558.25,649.932 1619.06,637.121 1667.35,626.946 363.925,901.571 1133.02,739.526 816.303,806.257 2242.7,505.721 1486.52,665.045 1313.16,701.573 1540.76,653.617 2221.71,510.144 626.914,846.161 485.749,875.904 1329.35,698.159 "></polyline>
<polyline clip-path="url(#clip512)" style="stroke:#0000ff; stroke-linecap:round; stroke-linejoin:round; stroke-width:4; stroke-opacity:0.5; fill:none" points="707.675,829.109 891.359,790.417 1190.16,727.477 1673.39,625.688 2089.05,538.133 744.627,821.325 1752.21,609.084 1672.17,625.944 1260.03,712.758 381.631,897.787 900.007,788.595 1596.64,641.854 409.716,891.872 1025.79,762.099 589.774,853.944 780.796,813.706 564.417,859.285 2211.93,512.248 1680.32,624.227 516.794,869.316 1888.21,580.438 743.633,821.534 1383.97,686.651 2208.11,513.052 1507.75,660.579 1344.67,694.93 2262.01,501.7 2227.45,508.978 859.392,797.15 521.58,868.308 1281.76,708.182 338.861,906.797 2239.45,506.451 357.418,902.888 1274.67,709.675 1324.61,699.156 1481.32,666.146 237.349,928.179 1106.69,745.058 1659.38,628.639 473.185,878.502 2082.45,539.522 1262.63,712.21 2077.79,540.504 1288.22,706.82 1511.56,659.777 232.436,929.214 1998.72,557.158 2027.51,551.094 1748.71,609.823 2290.59,495.679 640.447,843.27 1545.92,652.538 1188.91,727.74 2139.6,527.483 1369.83,689.631 1078.7,750.955 2115.56,532.547 1936.33,570.302 1205.1,724.329 1450.96,672.541 1611.95,638.629 746.153,821.003 649.585,841.345 2018.49,552.994 2080.52,539.928 1213.93,722.47 2009.96,554.792 593.555,853.147 734.423,823.474 1877.81,582.628 2230.73,508.287 334.989,907.612 1277.71,709.035 218.281,932.196 494.579,873.996 1698.51,620.396 1548.34,652.029 607.865,850.133 1627.93,635.262 979.076,771.94 1432,676.534 1673.81,625.599 855.33,798.006 1946.56,568.145 2281.48,497.597 1558.25,649.941 1619.06,637.133 1667.35,626.961 363.925,901.517 1133.02,739.512 816.303,806.227 2242.7,505.766 1486.52,665.05 1313.16,701.568 1540.76,653.625 2221.71,510.188 626.914,846.12 485.749,875.856 1329.35,698.156 "></polyline>
</svg>